<svg xmlns="http://www.w3.org/2000/svg" width="1050" height="800"><rect width="1050" height="800" x="0" y="0" fill="#FFFFFF" id="background"/><g id="viz"><g transform="translate(0,0)"><g transform="translate(10,20)"><g><path fill="#f9a337" d="M0,656.3636363636364C59.285714285714285,656.3636363636364,59.285714285714285,725.4545454545455,118.57142857142857,725.4545454545455C177.85714285714286,725.4545454545455,177.85714285714286,725.9701492537313,237.14285714285714,725.9701492537313C296.42857142857144,725.9701492537313,296.42857142857144,760,355.7142857142857,760C415,760,415,760,474.2857142857143,760C533.5714285714286,760,533.5714285714286,760,592.8571428571429,760C652.1428571428571,760,652.1428571428571,760,711.4285714285714,760C770.7142857142858,760,770.7142857142858,760,830,760L830,760C770.7142857142858,760,770.7142857142858,760,711.4285714285714,760C652.1428571428571,760,652.1428571428571,760,592.8571428571429,760C533.5714285714286,760,533.5714285714286,760,474.2857142857143,760C415,760,415,760,355.7142857142857,760C296.42857142857144,760,296.42857142857144,760,237.14285714285714,760C177.85714285714286,760,177.85714285714286,760,118.57142857142857,760C59.285714285714285,760,59.285714285714285,760,0,760Z"><title>Canción Infantil</title></path><path fill="#ffacf1" d="M0,310.9090909090909C59.285714285714285,310.9090909090909,59.285714285714285,518.1818181818182,118.57142857142857,518.1818181818182C177.85714285714286,518.1818181818182,177.85714285714286,657.9104477611941,237.14285714285714,657.9104477611941C296.42857142857144,657.9104477611941,296.42857142857144,760,355.7142857142857,760C415,760,415,760,474.2857142857143,760C533.5714285714286,760,533.5714285714286,760,592.8571428571429,760C652.1428571428571,760,652.1428571428571,760,711.4285714285714,760C770.7142857142858,760,770.7142857142858,760,830,760L830,760C770.7142857142858,760,770.7142857142858,760,711.4285714285714,760C652.1428571428571,760,652.1428571428571,760,592.8571428571429,760C533.5714285714286,760,533.5714285714286,760,474.2857142857143,760C415,760,415,760,355.7142857142857,760C296.42857142857144,760,296.42857142857144,703.2835820895523,237.14285714285714,703.2835820895523C177.85714285714286,703.2835820895523,177.85714285714286,518.1818181818182,118.57142857142857,518.1818181818182C59.285714285714285,518.1818181818182,59.285714285714285,345.4545454545454,0,345.4545454545454Z"><title>Ballet Clásico</title></path><path fill="#f7f100" d="M0,8.43769498715119e-14C59.285714285714285,8.43769498715119e-14,59.285714285714285,8.43769498715119e-14,118.57142857142857,8.43769498715119e-14C177.85714285714286,8.43769498715119e-14,177.85714285714286,68.05970149253743,237.14285714285714,68.05970149253743C296.42857142857144,68.05970149253743,296.42857142857144,8.43769498715119e-14,355.7142857142857,8.43769498715119e-14C415,8.43769498715119e-14,415,0,474.2857142857143,0C533.5714285714286,0,533.5714285714286,93.69863013698634,592.8571428571429,93.69863013698634C652.1428571428571,93.69863013698634,652.1428571428571,337.77777777777777,711.4285714285714,337.77777777777777C770.7142857142858,337.77777777777777,770.7142857142858,0,830,0L830,760C770.7142857142858,760,770.7142857142858,760,711.4285714285714,760C652.1428571428571,760,652.1428571428571,260.2739726027398,592.8571428571429,260.2739726027398C533.5714285714286,260.2739726027398,533.5714285714286,0,474.2857142857143,0C415,0,415,29.803921568627516,355.7142857142857,29.803921568627516C296.42857142857144,29.803921568627516,296.42857142857144,181.49253731343293,237.14285714285714,181.49253731343293C177.85714285714286,181.49253731343293,177.85714285714286,103.63636363636371,118.57142857142857,103.63636363636371C59.285714285714285,103.63636363636371,59.285714285714285,103.63636363636371,0,103.63636363636371Z"><title>Música Clásica</title></path><path fill="#21d33e" d="M0,276.3636363636364C59.285714285714285,276.3636363636364,59.285714285714285,518.1818181818182,118.57142857142857,518.1818181818182C177.85714285714286,518.1818181818182,177.85714285714286,601.1940298507463,237.14285714285714,601.1940298507463C296.42857142857144,601.1940298507463,296.42857142857144,760,355.7142857142857,760C415,760,415,760,474.2857142857143,760C533.5714285714286,760,533.5714285714286,739.1780821917808,592.8571428571429,739.1780821917808C652.1428571428571,739.1780821917808,652.1428571428571,760,711.4285714285714,760C770.7142857142858,760,770.7142857142858,760,830,760L830,760C770.7142857142858,760,770.7142857142858,760,711.4285714285714,760C652.1428571428571,760,652.1428571428571,760,592.8571428571429,760C533.5714285714286,760,533.5714285714286,760,474.2857142857143,760C415,760,415,760,355.7142857142857,760C296.42857142857144,760,296.42857142857144,657.9104477611941,237.14285714285714,657.9104477611941C177.85714285714286,657.9104477611941,177.85714285714286,518.1818181818182,118.57142857142857,518.1818181818182C59.285714285714285,518.1818181818182,59.285714285714285,310.9090909090909,0,310.9090909090909Z"><title>Romanticismo</title></path><path fill="#ff8600" d="M0,345.4545454545454C59.285714285714285,345.4545454545454,59.285714285714285,639.0909090909091,118.57142857142857,639.0909090909091C177.85714285714286,639.0909090909091,177.85714285714286,703.2835820895523,237.14285714285714,703.2835820895523C296.42857142857144,703.2835820895523,296.42857142857144,760,355.7142857142857,760C415,760,415,760,474.2857142857143,760C533.5714285714286,760,533.5714285714286,760,592.8571428571429,760C652.1428571428571,760,652.1428571428571,760,711.4285714285714,760C770.7142857142858,760,770.7142857142858,760,830,760L830,760C770.7142857142858,760,770.7142857142858,760,711.4285714285714,760C652.1428571428571,760,652.1428571428571,760,592.8571428571429,760C533.5714285714286,760,533.5714285714286,760,474.2857142857143,760C415,760,415,760,355.7142857142857,760C296.42857142857144,760,296.42857142857144,703.2835820895523,237.14285714285714,703.2835820895523C177.85714285714286,703.2835820895523,177.85714285714286,725.4545454545455,118.57142857142857,725.4545454545455C59.285714285714285,725.4545454545455,59.285714285714285,414.5454545454545,0,414.5454545454545Z"><title>Canción folclórica</title></path><path fill="#5144e0" d="M0,NaNC59.285714285714285,NaN,59.285714285714285,639.0909090909091,118.57142857142857,639.0909090909091C177.85714285714286,639.0909090909091,177.85714285714286,703.2835820895523,237.14285714285714,703.2835820895523C296.42857142857144,703.2835820895523,296.42857142857144,760,355.7142857142857,760C415,760,415,760,474.2857142857143,760C533.5714285714286,760,533.5714285714286,760,592.8571428571429,760C652.1428571428571,760,652.1428571428571,760,711.4285714285714,760C770.7142857142858,760,770.7142857142858,760,830,760L830,760C770.7142857142858,760,770.7142857142858,760,711.4285714285714,760C652.1428571428571,760,652.1428571428571,760,592.8571428571429,760C533.5714285714286,760,533.5714285714286,760,474.2857142857143,760C415,760,415,760,355.7142857142857,760C296.42857142857144,760,296.42857142857144,703.2835820895523,237.14285714285714,703.2835820895523C177.85714285714286,703.2835820895523,177.85714285714286,639.0909090909091,118.57142857142857,639.0909090909091C59.285714285714285,639.0909090909091,59.285714285714285,345.4545454545454,0,345.4545454545454Z"><title>Ópera</title></path><path fill="#000000" d="M0,NaNC59.285714285714285,NaN,59.285714285714285,639.0909090909091,118.57142857142857,639.0909090909091C177.85714285714286,639.0909090909091,177.85714285714286,703.2835820895523,237.14285714285714,703.2835820895523C296.42857142857144,703.2835820895523,296.42857142857144,760,355.7142857142857,760C415,760,415,760,474.2857142857143,760C533.5714285714286,760,533.5714285714286,760,592.8571428571429,760C652.1428571428571,760,652.1428571428571,760,711.4285714285714,760C770.7142857142858,760,770.7142857142858,760,830,760L830,760C770.7142857142858,760,770.7142857142858,760,711.4285714285714,760C652.1428571428571,760,652.1428571428571,760,592.8571428571429,760C533.5714285714286,760,533.5714285714286,760,474.2857142857143,760C415,760,415,760,355.7142857142857,760C296.42857142857144,760,296.42857142857144,703.2835820895523,237.14285714285714,703.2835820895523C177.85714285714286,703.2835820895523,177.85714285714286,639.0909090909091,118.57142857142857,639.0909090909091C59.285714285714285,639.0909090909091,59.285714285714285,345.4545454545454,0,345.4545454545454Z"><title>Marcha Nupcial</title></path><path fill="#4664ff" d="M0,621.8181818181818C59.285714285714285,621.8181818181818,59.285714285714285,725.4545454545455,118.57142857142857,725.4545454545455C177.85714285714286,725.4545454545455,177.85714285714286,725.9701492537313,237.14285714285714,725.9701492537313C296.42857142857144,725.9701492537313,296.42857142857144,760,355.7142857142857,760C415,760,415,760,474.2857142857143,760C533.5714285714286,760,533.5714285714286,760,592.8571428571429,760C652.1428571428571,760,652.1428571428571,760,711.4285714285714,760C770.7142857142858,760,770.7142857142858,760,830,760L830,760C770.7142857142858,760,770.7142857142858,760,711.4285714285714,760C652.1428571428571,760,652.1428571428571,760,592.8571428571429,760C533.5714285714286,760,533.5714285714286,760,474.2857142857143,760C415,760,415,760,355.7142857142857,760C296.42857142857144,760,296.42857142857144,725.9701492537313,237.14285714285714,725.9701492537313C177.85714285714286,725.9701492537313,177.85714285714286,725.4545454545455,118.57142857142857,725.4545454545455C59.285714285714285,725.4545454545455,59.285714285714285,656.3636363636364,0,656.3636363636364Z"><title>Bluegrass</title></path><path fill="#8b572a" d="M0,518.1818181818182C59.285714285714285,518.1818181818182,59.285714285714285,725.4545454545455,118.57142857142857,725.4545454545455C177.85714285714286,725.4545454545455,177.85714285714286,703.2835820895523,237.14285714285714,703.2835820895523C296.42857142857144,703.2835820895523,296.42857142857144,760,355.7142857142857,760C415,760,415,760,474.2857142857143,760C533.5714285714286,760,533.5714285714286,760,592.8571428571429,760C652.1428571428571,760,652.1428571428571,760,711.4285714285714,760C770.7142857142858,760,770.7142857142858,760,830,760L830,760C770.7142857142858,760,770.7142857142858,760,711.4285714285714,760C652.1428571428571,760,652.1428571428571,760,592.8571428571429,760C533.5714285714286,760,533.5714285714286,760,474.2857142857143,760C415,760,415,760,355.7142857142857,760C296.42857142857144,760,296.42857142857144,725.9701492537313,237.14285714285714,725.9701492537313C177.85714285714286,725.9701492537313,177.85714285714286,725.4545454545455,118.57142857142857,725.4545454545455C59.285714285714285,725.4545454545455,59.285714285714285,621.8181818181818,0,621.8181818181818Z"><title>Barroco</title></path><path fill="#9da2c6" d="M0,138.18181818181822C59.285714285714285,138.18181818181822,59.285714285714285,362.72727272727275,118.57142857142857,362.72727272727275C177.85714285714286,362.72727272727275,177.85714285714286,340.29850746268664,237.14285714285714,340.29850746268664C296.42857142857144,340.29850746268664,296.42857142857144,283.1372549019608,355.7142857142857,283.1372549019608C415,283.1372549019608,415,665,474.2857142857143,665C533.5714285714286,665,533.5714285714286,676.7123287671233,592.8571428571429,676.7123287671233C652.1428571428571,676.7123287671233,652.1428571428571,760,711.4285714285714,760C770.7142857142858,760,770.7142857142858,760,830,760L830,760C770.7142857142858,760,770.7142857142858,760,711.4285714285714,760C652.1428571428571,760,652.1428571428571,707.945205479452,592.8571428571429,707.945205479452C533.5714285714286,707.945205479452,533.5714285714286,686.9230769230769,474.2857142857143,686.9230769230769C415,686.9230769230769,415,283.1372549019608,355.7142857142857,283.1372549019608C296.42857142857144,283.1372549019608,296.42857142857144,340.29850746268664,237.14285714285714,340.29850746268664C177.85714285714286,340.29850746268664,177.85714285714286,362.72727272727275,118.57142857142857,362.72727272727275C59.285714285714285,362.72727272727275,59.285714285714285,172.72727272727275,0,172.72727272727275Z"><title>New Age</title></path><path fill="#f84d83" d="M0,483.6363636363636C59.285714285714285,483.6363636363636,59.285714285714285,725.4545454545455,118.57142857142857,725.4545454545455C177.85714285714286,725.4545454545455,177.85714285714286,703.2835820895523,237.14285714285714,703.2835820895523C296.42857142857144,703.2835820895523,296.42857142857144,760,355.7142857142857,760C415,760,415,760,474.2857142857143,760C533.5714285714286,760,533.5714285714286,760,592.8571428571429,760C652.1428571428571,760,652.1428571428571,760,711.4285714285714,760C770.7142857142858,760,770.7142857142858,760,830,760L830,760C770.7142857142858,760,770.7142857142858,760,711.4285714285714,760C652.1428571428571,760,652.1428571428571,760,592.8571428571429,760C533.5714285714286,760,533.5714285714286,760,474.2857142857143,760C415,760,415,760,355.7142857142857,760C296.42857142857144,760,296.42857142857144,703.2835820895523,237.14285714285714,703.2835820895523C177.85714285714286,703.2835820895523,177.85714285714286,725.4545454545455,118.57142857142857,725.4545454545455C59.285714285714285,725.4545454545455,59.285714285714285,518.1818181818182,0,518.1818181818182Z"><title>Instrumental</title></path><path fill="#ffffff" d="M0,449.090909090909C59.285714285714285,449.090909090909,59.285714285714285,725.4545454545455,118.57142857142857,725.4545454545455C177.85714285714286,725.4545454545455,177.85714285714286,703.2835820895523,237.14285714285714,703.2835820895523C296.42857142857144,703.2835820895523,296.42857142857144,760,355.7142857142857,760C415,760,415,760,474.2857142857143,760C533.5714285714286,760,533.5714285714286,760,592.8571428571429,760C652.1428571428571,760,652.1428571428571,760,711.4285714285714,760C770.7142857142858,760,770.7142857142858,760,830,760L830,760C770.7142857142858,760,770.7142857142858,760,711.4285714285714,760C652.1428571428571,760,652.1428571428571,760,592.8571428571429,760C533.5714285714286,760,533.5714285714286,760,474.2857142857143,760C415,760,415,760,355.7142857142857,760C296.42857142857144,760,296.42857142857144,703.2835820895523,237.14285714285714,703.2835820895523C177.85714285714286,703.2835820895523,177.85714285714286,725.4545454545455,118.57142857142857,725.4545454545455C59.285714285714285,725.4545454545455,59.285714285714285,483.6363636363636,0,483.6363636363636Z"><title>Góspel</title></path><path fill="#51351c" d="M0,414.5454545454545C59.285714285714285,414.5454545454545,59.285714285714285,725.4545454545455,118.57142857142857,725.4545454545455C177.85714285714286,725.4545454545455,177.85714285714286,703.2835820895523,237.14285714285714,703.2835820895523C296.42857142857144,703.2835820895523,296.42857142857144,760,355.7142857142857,760C415,760,415,760,474.2857142857143,760C533.5714285714286,760,533.5714285714286,760,592.8571428571429,760C652.1428571428571,760,652.1428571428571,760,711.4285714285714,760C770.7142857142858,760,770.7142857142858,760,830,760L830,760C770.7142857142858,760,770.7142857142858,760,711.4285714285714,760C652.1428571428571,760,652.1428571428571,760,592.8571428571429,760C533.5714285714286,760,533.5714285714286,760,474.2857142857143,760C415,760,415,760,355.7142857142857,760C296.42857142857144,760,296.42857142857144,703.2835820895523,237.14285714285714,703.2835820895523C177.85714285714286,703.2835820895523,177.85714285714286,725.4545454545455,118.57142857142857,725.4545454545455C59.285714285714285,725.4545454545455,59.285714285714285,449.090909090909,0,449.090909090909Z"><title>Espiritual afroamericano</title></path><path fill="#fff091" d="M0,103.63636363636371C59.285714285714285,103.63636363636371,59.285714285714285,310.909090909091,118.57142857142857,310.909090909091C177.85714285714286,310.909090909091,177.85714285714286,340.29850746268664,237.14285714285714,340.29850746268664C296.42857142857144,340.29850746268664,296.42857142857144,163.921568627451,355.7142857142857,163.921568627451C415,163.921568627451,415,577.3076923076923,474.2857142857143,577.3076923076923C533.5714285714286,577.3076923076923,533.5714285714286,676.7123287671233,592.8571428571429,676.7123287671233C652.1428571428571,676.7123287671233,652.1428571428571,760,711.4285714285714,760C770.7142857142858,760,770.7142857142858,760,830,760L830,760C770.7142857142858,760,770.7142857142858,760,711.4285714285714,760C652.1428571428571,760,652.1428571428571,676.7123287671233,592.8571428571429,676.7123287671233C533.5714285714286,676.7123287671233,533.5714285714286,665,474.2857142857143,665C415,665,415,283.1372549019608,355.7142857142857,283.1372549019608C296.42857142857144,283.1372549019608,296.42857142857144,340.29850746268664,237.14285714285714,340.29850746268664C177.85714285714286,340.29850746268664,177.85714285714286,362.72727272727275,118.57142857142857,362.72727272727275C59.285714285714285,362.72727272727275,59.285714285714285,138.18181818181822,0,138.18181818181822Z"><title>Jazz</title></path><path fill="#d857fc" d="M0,172.72727272727275C59.285714285714285,172.72727272727275,59.285714285714285,483.6363636363636,118.57142857142857,483.6363636363636C177.85714285714286,483.6363636363636,177.85714285714286,544.4776119402985,237.14285714285714,544.4776119402985C296.42857142857144,544.4776119402985,296.42857142857144,685.4901960784314,355.7142857142857,685.4901960784314C415,685.4901960784314,415,760,474.2857142857143,760C533.5714285714286,760,533.5714285714286,739.1780821917808,592.8571428571429,739.1780821917808C652.1428571428571,739.1780821917808,652.1428571428571,760,711.4285714285714,760C770.7142857142858,760,770.7142857142858,760,830,760L830,760C770.7142857142858,760,770.7142857142858,760,711.4285714285714,760C652.1428571428571,760,652.1428571428571,739.1780821917808,592.8571428571429,739.1780821917808C533.5714285714286,739.1780821917808,533.5714285714286,760,474.2857142857143,760C415,760,415,760,355.7142857142857,760C296.42857142857144,760,296.42857142857144,601.1940298507463,237.14285714285714,601.1940298507463C177.85714285714286,601.1940298507463,177.85714285714286,518.1818181818182,118.57142857142857,518.1818181818182C59.285714285714285,518.1818181818182,59.285714285714285,276.3636363636364,0,276.3636363636364Z"><title>Musical</title></path><path fill="#ff39ad" d="M0,103.63636363636371C59.285714285714285,103.63636363636371,59.285714285714285,190.00000000000009,118.57142857142857,190.00000000000009C177.85714285714286,190.00000000000009,177.85714285714286,249.5522388059702,237.14285714285714,249.5522388059702C296.42857142857144,249.5522388059702,296.42857142857144,89.41176470588238,355.7142857142857,89.41176470588238C415,89.41176470588238,415,504.2307692307692,474.2857142857143,504.2307692307692C533.5714285714286,504.2307692307692,533.5714285714286,583.0136986301369,592.8571428571429,583.0136986301369C652.1428571428571,583.0136986301369,652.1428571428571,760,711.4285714285714,760C770.7142857142858,760,770.7142857142858,760,830,760L830,760C770.7142857142858,760,770.7142857142858,760,711.4285714285714,760C652.1428571428571,760,652.1428571428571,676.7123287671233,592.8571428571429,676.7123287671233C533.5714285714286,676.7123287671233,533.5714285714286,577.3076923076923,474.2857142857143,577.3076923076923C415,577.3076923076923,415,163.921568627451,355.7142857142857,163.921568627451C296.42857142857144,163.921568627451,296.42857142857144,340.29850746268664,237.14285714285714,340.29850746268664C177.85714285714286,340.29850746268664,177.85714285714286,310.909090909091,118.57142857142857,310.909090909091C59.285714285714285,310.909090909091,59.285714285714285,103.63636363636371,0,103.63636363636371Z"><title>Pop</title></path><path fill="#de779b" d="M0,172.72727272727275C59.285714285714285,172.72727272727275,59.285714285714285,362.72727272727275,118.57142857142857,362.72727272727275C177.85714285714286,362.72727272727275,177.85714285714286,362.9850746268657,237.14285714285714,362.9850746268657C296.42857142857144,362.9850746268657,296.42857142857144,476.8627450980392,355.7142857142857,476.8627450980392C415,476.8627450980392,415,686.9230769230769,474.2857142857143,686.9230769230769C533.5714285714286,686.9230769230769,533.5714285714286,707.945205479452,592.8571428571429,707.945205479452C652.1428571428571,707.945205479452,652.1428571428571,760,711.4285714285714,760C770.7142857142858,760,770.7142857142858,760,830,760L830,760C770.7142857142858,760,770.7142857142858,760,711.4285714285714,760C652.1428571428571,760,652.1428571428571,739.1780821917808,592.8571428571429,739.1780821917808C533.5714285714286,739.1780821917808,533.5714285714286,760,474.2857142857143,760C415,760,415,685.4901960784314,355.7142857142857,685.4901960784314C296.42857142857144,685.4901960784314,296.42857142857144,476.41791044776124,237.14285714285714,476.41791044776124C177.85714285714286,476.41791044776124,177.85714285714286,483.6363636363636,118.57142857142857,483.6363636363636C59.285714285714285,483.6363636363636,59.285714285714285,172.72727272727275,0,172.72727272727275Z"><title>Balada</title></path><path fill="#212012" d="M0,103.63636363636371C59.285714285714285,103.63636363636371,59.285714285714285,172.72727272727283,118.57142857142857,172.72727272727283C177.85714285714286,172.72727272727283,177.85714285714286,204.17910447761201,237.14285714285714,204.17910447761201C296.42857142857144,204.17910447761201,296.42857142857144,89.41176470588238,355.7142857142857,89.41176470588238C415,89.41176470588238,415,453.0769230769231,474.2857142857143,453.0769230769231C533.5714285714286,453.0769230769231,533.5714285714286,583.0136986301369,592.8571428571429,583.0136986301369C652.1428571428571,583.0136986301369,652.1428571428571,760,711.4285714285714,760C770.7142857142858,760,770.7142857142858,760,830,760L830,760C770.7142857142858,760,770.7142857142858,760,711.4285714285714,760C652.1428571428571,760,652.1428571428571,583.0136986301369,592.8571428571429,583.0136986301369C533.5714285714286,583.0136986301369,533.5714285714286,504.2307692307692,474.2857142857143,504.2307692307692C415,504.2307692307692,415,89.41176470588238,355.7142857142857,89.41176470588238C296.42857142857144,89.41176470588238,296.42857142857144,249.5522388059702,237.14285714285714,249.5522388059702C177.85714285714286,249.5522388059702,177.85714285714286,190.00000000000009,118.57142857142857,190.00000000000009C59.285714285714285,190.00000000000009,59.285714285714285,103.63636363636371,0,103.63636363636371Z"><title>R&amp;B</title></path><path fill="#0a7d2d" d="M0,345.4545454545454C59.285714285714285,345.4545454545454,59.285714285714285,604.5454545454545,118.57142857142857,604.5454545454545C177.85714285714286,604.5454545454545,177.85714285714286,703.2835820895523,237.14285714285714,703.2835820895523C296.42857142857144,703.2835820895523,296.42857142857144,760,355.7142857142857,760C415,760,415,760,474.2857142857143,760C533.5714285714286,760,533.5714285714286,760,592.8571428571429,760C652.1428571428571,760,652.1428571428571,760,711.4285714285714,760C770.7142857142858,760,770.7142857142858,760,830,760L830,760C770.7142857142858,760,770.7142857142858,760,711.4285714285714,760C652.1428571428571,760,652.1428571428571,760,592.8571428571429,760C533.5714285714286,760,533.5714285714286,760,474.2857142857143,760C415,760,415,760,355.7142857142857,760C296.42857142857144,760,296.42857142857144,703.2835820895523,237.14285714285714,703.2835820895523C177.85714285714286,703.2835820895523,177.85714285714286,639.0909090909091,118.57142857142857,639.0909090909091C59.285714285714285,639.0909090909091,59.285714285714285,345.4545454545454,0,345.4545454545454Z"><title>Himno Militar</title></path><path fill="#a4260b" d="M0,345.4545454545454C59.285714285714285,345.4545454545454,59.285714285714285,570,118.57142857142857,570C177.85714285714286,570,177.85714285714286,703.2835820895523,237.14285714285714,703.2835820895523C296.42857142857144,703.2835820895523,296.42857142857144,760,355.7142857142857,760C415,760,415,760,474.2857142857143,760C533.5714285714286,760,533.5714285714286,760,592.8571428571429,760C652.1428571428571,760,652.1428571428571,760,711.4285714285714,760C770.7142857142858,760,770.7142857142858,760,830,760L830,760C770.7142857142858,760,770.7142857142858,760,711.4285714285714,760C652.1428571428571,760,652.1428571428571,760,592.8571428571429,760C533.5714285714286,760,533.5714285714286,760,474.2857142857143,760C415,760,415,760,355.7142857142857,760C296.42857142857144,760,296.42857142857144,703.2835820895523,237.14285714285714,703.2835820895523C177.85714285714286,703.2835820895523,177.85714285714286,604.5454545454545,118.57142857142857,604.5454545454545C59.285714285714285,604.5454545454545,59.285714285714285,345.4545454545454,0,345.4545454545454Z"><title>Rock and Roll</title></path><path fill="#d0759a" d="M0,103.63636363636371C59.285714285714285,103.63636363636371,59.285714285714285,103.63636363636371,118.57142857142857,103.63636363636371C177.85714285714286,103.63636363636371,177.85714285714286,204.17910447761201,237.14285714285714,204.17910447761201C296.42857142857144,204.17910447761201,296.42857142857144,89.41176470588238,355.7142857142857,89.41176470588238C415,89.41176470588238,415,314.2307692307692,474.2857142857143,314.2307692307692C533.5714285714286,314.2307692307692,533.5714285714286,468.49315068493155,592.8571428571429,468.49315068493155C652.1428571428571,468.49315068493155,652.1428571428571,760,711.4285714285714,760C770.7142857142858,760,770.7142857142858,760,830,760L830,760C770.7142857142858,760,770.7142857142858,760,711.4285714285714,760C652.1428571428571,760,652.1428571428571,583.0136986301369,592.8571428571429,583.0136986301369C533.5714285714286,583.0136986301369,533.5714285714286,453.0769230769231,474.2857142857143,453.0769230769231C415,453.0769230769231,415,89.41176470588238,355.7142857142857,89.41176470588238C296.42857142857144,89.41176470588238,296.42857142857144,204.17910447761201,237.14285714285714,204.17910447761201C177.85714285714286,204.17910447761201,177.85714285714286,172.72727272727283,118.57142857142857,172.72727272727283C59.285714285714285,172.72727272727283,59.285714285714285,103.63636363636371,0,103.63636363636371Z"><title>Romántica</title></path><path fill="#ffeb2e" d="M0,345.4545454545454C59.285714285714285,345.4545454545454,59.285714285714285,535.4545454545455,118.57142857142857,535.4545454545455C177.85714285714286,535.4545454545455,177.85714285714286,703.2835820895523,237.14285714285714,703.2835820895523C296.42857142857144,703.2835820895523,296.42857142857144,760,355.7142857142857,760C415,760,415,760,474.2857142857143,760C533.5714285714286,760,533.5714285714286,760,592.8571428571429,760C652.1428571428571,760,652.1428571428571,760,711.4285714285714,760C770.7142857142858,760,770.7142857142858,760,830,760L830,760C770.7142857142858,760,770.7142857142858,760,711.4285714285714,760C652.1428571428571,760,652.1428571428571,760,592.8571428571429,760C533.5714285714286,760,533.5714285714286,760,474.2857142857143,760C415,760,415,760,355.7142857142857,760C296.42857142857144,760,296.42857142857144,703.2835820895523,237.14285714285714,703.2835820895523C177.85714285714286,703.2835820895523,177.85714285714286,570,118.57142857142857,570C59.285714285714285,570,59.285714285714285,345.4545454545454,0,345.4545454545454Z"><title>Villancico</title></path><path fill="#39e8bd" d="M0,345.4545454545454C59.285714285714285,345.4545454545454,59.285714285714285,518.1818181818182,118.57142857142857,518.1818181818182C177.85714285714286,518.1818181818182,177.85714285714286,703.2835820895523,237.14285714285714,703.2835820895523C296.42857142857144,703.2835820895523,296.42857142857144,760,355.7142857142857,760C415,760,415,760,474.2857142857143,760C533.5714285714286,760,533.5714285714286,760,592.8571428571429,760C652.1428571428571,760,652.1428571428571,760,711.4285714285714,760C770.7142857142858,760,770.7142857142858,760,830,760L830,760C770.7142857142858,760,770.7142857142858,760,711.4285714285714,760C652.1428571428571,760,652.1428571428571,760,592.8571428571429,760C533.5714285714286,760,533.5714285714286,760,474.2857142857143,760C415,760,415,760,355.7142857142857,760C296.42857142857144,760,296.42857142857144,703.2835820895523,237.14285714285714,703.2835820895523C177.85714285714286,703.2835820895523,177.85714285714286,535.4545454545455,118.57142857142857,535.4545454545455C59.285714285714285,535.4545454545455,59.285714285714285,345.4545454545454,0,345.4545454545454Z"><title>Música Renacentista</title></path><path fill="#fb2888" d="M0,8.43769498715119e-14C59.285714285714285,8.43769498715119e-14,59.285714285714285,8.43769498715119e-14,118.57142857142857,8.43769498715119e-14C177.85714285714286,8.43769498715119e-14,177.85714285714286,1.687538997430238e-13,237.14285714285714,1.687538997430238e-13C296.42857142857144,1.687538997430238e-13,296.42857142857144,8.43769498715119e-14,355.7142857142857,8.43769498715119e-14C415,8.43769498715119e-14,415,0,474.2857142857143,0C533.5714285714286,0,533.5714285714286,0,592.8571428571429,0C652.1428571428571,0,652.1428571428571,0,711.4285714285714,0C770.7142857142858,0,770.7142857142858,0,830,0L830,0C770.7142857142858,0,770.7142857142858,168.88888888888889,711.4285714285714,168.88888888888889C652.1428571428571,168.88888888888889,652.1428571428571,0,592.8571428571429,0C533.5714285714286,0,533.5714285714286,0,474.2857142857143,0C415,0,415,8.43769498715119e-14,355.7142857142857,8.43769498715119e-14C296.42857142857144,8.43769498715119e-14,296.42857142857144,22.686567164179255,237.14285714285714,22.686567164179255C177.85714285714286,22.686567164179255,177.85714285714286,8.43769498715119e-14,118.57142857142857,8.43769498715119e-14C59.285714285714285,8.43769498715119e-14,59.285714285714285,8.43769498715119e-14,0,8.43769498715119e-14Z"><title>Pop Rock</title></path><path fill="#b6f241" d="M0,103.63636363636371C59.285714285714285,103.63636363636371,59.285714285714285,103.63636363636371,118.57142857142857,103.63636363636371C177.85714285714286,103.63636363636371,177.85714285714286,181.49253731343293,237.14285714285714,181.49253731343293C296.42857142857144,181.49253731343293,296.42857142857144,89.41176470588238,355.7142857142857,89.41176470588238C415,89.41176470588238,415,182.6923076923077,474.2857142857143,182.6923076923077C533.5714285714286,182.6923076923077,533.5714285714286,385.2054794520548,592.8571428571429,385.2054794520548C652.1428571428571,385.2054794520548,652.1428571428571,760,711.4285714285714,760C770.7142857142858,760,770.7142857142858,760,830,760L830,760C770.7142857142858,760,770.7142857142858,760,711.4285714285714,760C652.1428571428571,760,652.1428571428571,468.49315068493155,592.8571428571429,468.49315068493155C533.5714285714286,468.49315068493155,533.5714285714286,314.2307692307692,474.2857142857143,314.2307692307692C415,314.2307692307692,415,89.41176470588238,355.7142857142857,89.41176470588238C296.42857142857144,89.41176470588238,296.42857142857144,204.17910447761201,237.14285714285714,204.17910447761201C177.85714285714286,204.17910447761201,177.85714285714286,103.63636363636371,118.57142857142857,103.63636363636371C59.285714285714285,103.63636363636371,59.285714285714285,103.63636363636371,0,103.63636363636371Z"><title>Música Ligera</title></path><path fill="#c4321a" d="M0,8.43769498715119e-14C59.285714285714285,8.43769498715119e-14,59.285714285714285,8.43769498715119e-14,118.57142857142857,8.43769498715119e-14C177.85714285714286,8.43769498715119e-14,177.85714285714286,22.686567164179255,237.14285714285714,22.686567164179255C296.42857142857144,22.686567164179255,296.42857142857144,8.43769498715119e-14,355.7142857142857,8.43769498715119e-14C415,8.43769498715119e-14,415,0,474.2857142857143,0C533.5714285714286,0,533.5714285714286,0,592.8571428571429,0C652.1428571428571,0,652.1428571428571,168.88888888888889,711.4285714285714,168.88888888888889C770.7142857142858,168.88888888888889,770.7142857142858,0,830,0L830,0C770.7142857142858,0,770.7142857142858,337.77777777777777,711.4285714285714,337.77777777777777C652.1428571428571,337.77777777777777,652.1428571428571,93.69863013698634,592.8571428571429,93.69863013698634C533.5714285714286,93.69863013698634,533.5714285714286,0,474.2857142857143,0C415,0,415,8.43769498715119e-14,355.7142857142857,8.43769498715119e-14C296.42857142857144,8.43769498715119e-14,296.42857142857144,68.05970149253743,237.14285714285714,68.05970149253743C177.85714285714286,68.05970149253743,177.85714285714286,8.43769498715119e-14,118.57142857142857,8.43769498715119e-14C59.285714285714285,8.43769498715119e-14,59.285714285714285,8.43769498715119e-14,0,8.43769498715119e-14Z"><title>Rock</title></path><path fill="#ffa695" d="M0,172.72727272727275C59.285714285714285,172.72727272727275,59.285714285714285,483.6363636363636,118.57142857142857,483.6363636363636C177.85714285714286,483.6363636363636,177.85714285714286,499.1044776119403,237.14285714285714,499.1044776119403C296.42857142857144,499.1044776119403,296.42857142857144,685.4901960784314,355.7142857142857,685.4901960784314C415,685.4901960784314,415,760,474.2857142857143,760C533.5714285714286,760,533.5714285714286,739.1780821917808,592.8571428571429,739.1780821917808C652.1428571428571,739.1780821917808,652.1428571428571,760,711.4285714285714,760C770.7142857142858,760,770.7142857142858,760,830,760L830,760C770.7142857142858,760,770.7142857142858,760,711.4285714285714,760C652.1428571428571,760,652.1428571428571,739.1780821917808,592.8571428571429,739.1780821917808C533.5714285714286,739.1780821917808,533.5714285714286,760,474.2857142857143,760C415,760,415,685.4901960784314,355.7142857142857,685.4901960784314C296.42857142857144,685.4901960784314,296.42857142857144,544.4776119402985,237.14285714285714,544.4776119402985C177.85714285714286,544.4776119402985,177.85714285714286,483.6363636363636,118.57142857142857,483.6363636363636C59.285714285714285,483.6363636363636,59.285714285714285,172.72727272727275,0,172.72727272727275Z"><title>Soft Rock</title></path><path fill="#1e00c9" d="M0,172.72727272727275C59.285714285714285,172.72727272727275,59.285714285714285,362.72727272727275,118.57142857142857,362.72727272727275C177.85714285714286,362.72727272727275,177.85714285714286,340.29850746268664,237.14285714285714,340.29850746268664C296.42857142857144,340.29850746268664,296.42857142857144,432.156862745098,355.7142857142857,432.156862745098C415,432.156862745098,415,686.9230769230769,474.2857142857143,686.9230769230769C533.5714285714286,686.9230769230769,533.5714285714286,707.945205479452,592.8571428571429,707.945205479452C652.1428571428571,707.945205479452,652.1428571428571,760,711.4285714285714,760C770.7142857142858,760,770.7142857142858,760,830,760L830,760C770.7142857142858,760,770.7142857142858,760,711.4285714285714,760C652.1428571428571,760,652.1428571428571,707.945205479452,592.8571428571429,707.945205479452C533.5714285714286,707.945205479452,533.5714285714286,686.9230769230769,474.2857142857143,686.9230769230769C415,686.9230769230769,415,476.8627450980392,355.7142857142857,476.8627450980392C296.42857142857144,476.8627450980392,296.42857142857144,362.9850746268657,237.14285714285714,362.9850746268657C177.85714285714286,362.9850746268657,177.85714285714286,362.72727272727275,118.57142857142857,362.72727272727275C59.285714285714285,362.72727272727275,59.285714285714285,172.72727272727275,0,172.72727272727275Z"><title>Soul</title></path><path fill="#40d93f" d="M0,172.72727272727275C59.285714285714285,172.72727272727275,59.285714285714285,483.6363636363636,118.57142857142857,483.6363636363636C177.85714285714286,483.6363636363636,177.85714285714286,476.41791044776124,237.14285714285714,476.41791044776124C296.42857142857144,476.41791044776124,296.42857142857144,685.4901960784314,355.7142857142857,685.4901960784314C415,685.4901960784314,415,760,474.2857142857143,760C533.5714285714286,760,533.5714285714286,739.1780821917808,592.8571428571429,739.1780821917808C652.1428571428571,739.1780821917808,652.1428571428571,760,711.4285714285714,760C770.7142857142858,760,770.7142857142858,760,830,760L830,760C770.7142857142858,760,770.7142857142858,760,711.4285714285714,760C652.1428571428571,760,652.1428571428571,739.1780821917808,592.8571428571429,739.1780821917808C533.5714285714286,739.1780821917808,533.5714285714286,760,474.2857142857143,760C415,760,415,685.4901960784314,355.7142857142857,685.4901960784314C296.42857142857144,685.4901960784314,296.42857142857144,499.1044776119403,237.14285714285714,499.1044776119403C177.85714285714286,499.1044776119403,177.85714285714286,483.6363636363636,118.57142857142857,483.6363636363636C59.285714285714285,483.6363636363636,59.285714285714285,172.72727272727275,0,172.72727272727275Z"><title>Funk</title></path><path fill="#50abe3" d="M0,172.72727272727275C59.285714285714285,172.72727272727275,59.285714285714285,362.72727272727275,118.57142857142857,362.72727272727275C177.85714285714286,362.72727272727275,177.85714285714286,340.29850746268664,237.14285714285714,340.29850746268664C296.42857142857144,340.29850746268664,296.42857142857144,402.3529411764706,355.7142857142857,402.3529411764706C415,402.3529411764706,415,686.9230769230769,474.2857142857143,686.9230769230769C533.5714285714286,686.9230769230769,533.5714285714286,707.945205479452,592.8571428571429,707.945205479452C652.1428571428571,707.945205479452,652.1428571428571,760,711.4285714285714,760C770.7142857142858,760,770.7142857142858,760,830,760L830,760C770.7142857142858,760,770.7142857142858,760,711.4285714285714,760C652.1428571428571,760,652.1428571428571,707.945205479452,592.8571428571429,707.945205479452C533.5714285714286,707.945205479452,533.5714285714286,686.9230769230769,474.2857142857143,686.9230769230769C415,686.9230769230769,415,432.156862745098,355.7142857142857,432.156862745098C296.42857142857144,432.156862745098,296.42857142857144,340.29850746268664,237.14285714285714,340.29850746268664C177.85714285714286,340.29850746268664,177.85714285714286,362.72727272727275,118.57142857142857,362.72727272727275C59.285714285714285,362.72727272727275,59.285714285714285,172.72727272727275,0,172.72727272727275Z"><title>Vals</title></path><path fill="#a132e9" d="M0,172.72727272727275C59.285714285714285,172.72727272727275,59.285714285714285,362.72727272727275,118.57142857142857,362.72727272727275C177.85714285714286,362.72727272727275,177.85714285714286,340.29850746268664,237.14285714285714,340.29850746268664C296.42857142857144,340.29850746268664,296.42857142857144,372.54901960784315,355.7142857142857,372.54901960784315C415,372.54901960784315,415,686.9230769230769,474.2857142857143,686.9230769230769C533.5714285714286,686.9230769230769,533.5714285714286,707.945205479452,592.8571428571429,707.945205479452C652.1428571428571,707.945205479452,652.1428571428571,760,711.4285714285714,760C770.7142857142858,760,770.7142857142858,760,830,760L830,760C770.7142857142858,760,770.7142857142858,760,711.4285714285714,760C652.1428571428571,760,652.1428571428571,707.945205479452,592.8571428571429,707.945205479452C533.5714285714286,707.945205479452,533.5714285714286,686.9230769230769,474.2857142857143,686.9230769230769C415,686.9230769230769,415,402.3529411764706,355.7142857142857,402.3529411764706C296.42857142857144,402.3529411764706,296.42857142857144,340.29850746268664,237.14285714285714,340.29850746268664C177.85714285714286,340.29850746268664,177.85714285714286,362.72727272727275,118.57142857142857,362.72727272727275C59.285714285714285,362.72727272727275,59.285714285714285,172.72727272727275,0,172.72727272727275Z"><title>Hip-Hop</title></path><path fill="#ff871e" d="M0,172.72727272727275C59.285714285714285,172.72727272727275,59.285714285714285,362.72727272727275,118.57142857142857,362.72727272727275C177.85714285714286,362.72727272727275,177.85714285714286,340.29850746268664,237.14285714285714,340.29850746268664C296.42857142857144,340.29850746268664,296.42857142857144,342.74509803921575,355.7142857142857,342.74509803921575C415,342.74509803921575,415,686.9230769230769,474.2857142857143,686.9230769230769C533.5714285714286,686.9230769230769,533.5714285714286,707.945205479452,592.8571428571429,707.945205479452C652.1428571428571,707.945205479452,652.1428571428571,760,711.4285714285714,760C770.7142857142858,760,770.7142857142858,760,830,760L830,760C770.7142857142858,760,770.7142857142858,760,711.4285714285714,760C652.1428571428571,760,652.1428571428571,707.945205479452,592.8571428571429,707.945205479452C533.5714285714286,707.945205479452,533.5714285714286,686.9230769230769,474.2857142857143,686.9230769230769C415,686.9230769230769,415,372.54901960784315,355.7142857142857,372.54901960784315C296.42857142857144,372.54901960784315,296.42857142857144,340.29850746268664,237.14285714285714,340.29850746268664C177.85714285714286,340.29850746268664,177.85714285714286,362.72727272727275,118.57142857142857,362.72727272727275C59.285714285714285,362.72727272727275,59.285714285714285,172.72727272727275,0,172.72727272727275Z"><title>Rap</title></path><path fill="#1756e8" d="M0,103.63636363636371C59.285714285714285,103.63636363636371,59.285714285714285,103.63636363636371,118.57142857142857,103.63636363636371C177.85714285714286,103.63636363636371,177.85714285714286,181.49253731343293,237.14285714285714,181.49253731343293C296.42857142857144,181.49253731343293,296.42857142857144,29.803921568627516,355.7142857142857,29.803921568627516C415,29.803921568627516,415,138.84615384615387,474.2857142857143,138.84615384615387C533.5714285714286,138.84615384615387,533.5714285714286,385.2054794520548,592.8571428571429,385.2054794520548C652.1428571428571,385.2054794520548,652.1428571428571,760,711.4285714285714,760C770.7142857142858,760,770.7142857142858,760,830,760L830,760C770.7142857142858,760,770.7142857142858,760,711.4285714285714,760C652.1428571428571,760,652.1428571428571,385.2054794520548,592.8571428571429,385.2054794520548C533.5714285714286,385.2054794520548,533.5714285714286,182.6923076923077,474.2857142857143,182.6923076923077C415,182.6923076923077,415,89.41176470588238,355.7142857142857,89.41176470588238C296.42857142857144,89.41176470588238,296.42857142857144,181.49253731343293,237.14285714285714,181.49253731343293C177.85714285714286,181.49253731343293,177.85714285714286,103.63636363636371,118.57142857142857,103.63636363636371C59.285714285714285,103.63636363636371,59.285714285714285,103.63636363636371,0,103.63636363636371Z"><title>Blues</title></path><path fill="#3df2df" d="M0,103.63636363636371C59.285714285714285,103.63636363636371,59.285714285714285,103.63636363636371,118.57142857142857,103.63636363636371C177.85714285714286,103.63636363636371,177.85714285714286,181.49253731343293,237.14285714285714,181.49253731343293C296.42857142857144,181.49253731343293,296.42857142857144,29.803921568627516,355.7142857142857,29.803921568627516C415,29.803921568627516,415,21.92307692307693,474.2857142857143,21.92307692307693C533.5714285714286,21.92307692307693,533.5714285714286,260.2739726027398,592.8571428571429,260.2739726027398C652.1428571428571,260.2739726027398,652.1428571428571,760,711.4285714285714,760C770.7142857142858,760,770.7142857142858,760,830,760L830,760C770.7142857142858,760,770.7142857142858,760,711.4285714285714,760C652.1428571428571,760,652.1428571428571,385.2054794520548,592.8571428571429,385.2054794520548C533.5714285714286,385.2054794520548,533.5714285714286,138.84615384615387,474.2857142857143,138.84615384615387C415,138.84615384615387,415,29.803921568627516,355.7142857142857,29.803921568627516C296.42857142857144,29.803921568627516,296.42857142857144,181.49253731343293,237.14285714285714,181.49253731343293C177.85714285714286,181.49253731343293,177.85714285714286,103.63636363636371,118.57142857142857,103.63636363636371C59.285714285714285,103.63636363636371,59.285714285714285,103.63636363636371,0,103.63636363636371Z"><title>Impresionista</title></path><path fill="#07ff04" d="M0,103.63636363636371C59.285714285714285,103.63636363636371,59.285714285714285,103.63636363636371,118.57142857142857,103.63636363636371C177.85714285714286,103.63636363636371,177.85714285714286,181.49253731343293,237.14285714285714,181.49253731343293C296.42857142857144,181.49253731343293,296.42857142857144,29.803921568627516,355.7142857142857,29.803921568627516C415,29.803921568627516,415,0,474.2857142857143,0C533.5714285714286,0,533.5714285714286,260.2739726027398,592.8571428571429,260.2739726027398C652.1428571428571,260.2739726027398,652.1428571428571,760,711.4285714285714,760C770.7142857142858,760,770.7142857142858,760,830,760L830,760C770.7142857142858,760,770.7142857142858,760,711.4285714285714,760C652.1428571428571,760,652.1428571428571,260.2739726027398,592.8571428571429,260.2739726027398C533.5714285714286,260.2739726027398,533.5714285714286,21.92307692307693,474.2857142857143,21.92307692307693C415,21.92307692307693,415,29.803921568627516,355.7142857142857,29.803921568627516C296.42857142857144,29.803921568627516,296.42857142857144,181.49253731343293,237.14285714285714,181.49253731343293C177.85714285714286,181.49253731343293,177.85714285714286,103.63636363636371,118.57142857142857,103.63636363636371C59.285714285714285,103.63636363636371,59.285714285714285,103.63636363636371,0,103.63636363636371Z"><title>Ambient</title></path><path fill="#855316" d="M0,172.72727272727275C59.285714285714285,172.72727272727275,59.285714285714285,362.72727272727275,118.57142857142857,362.72727272727275C177.85714285714286,362.72727272727275,177.85714285714286,340.29850746268664,237.14285714285714,340.29850746268664C296.42857142857144,340.29850746268664,296.42857142857144,283.1372549019608,355.7142857142857,283.1372549019608C415,283.1372549019608,415,686.9230769230769,474.2857142857143,686.9230769230769C533.5714285714286,686.9230769230769,533.5714285714286,707.945205479452,592.8571428571429,707.945205479452C652.1428571428571,707.945205479452,652.1428571428571,760,711.4285714285714,760C770.7142857142858,760,770.7142857142858,760,830,760L830,760C770.7142857142858,760,770.7142857142858,760,711.4285714285714,760C652.1428571428571,760,652.1428571428571,707.945205479452,592.8571428571429,707.945205479452C533.5714285714286,707.945205479452,533.5714285714286,686.9230769230769,474.2857142857143,686.9230769230769C415,686.9230769230769,415,342.74509803921575,355.7142857142857,342.74509803921575C296.42857142857144,342.74509803921575,296.42857142857144,340.29850746268664,237.14285714285714,340.29850746268664C177.85714285714286,340.29850746268664,177.85714285714286,362.72727272727275,118.57142857142857,362.72727272727275C59.285714285714285,362.72727272727275,59.285714285714285,172.72727272727275,0,172.72727272727275Z"><title>Ragtime</title></path></g><g id="xAxis" transform="translate(0,760)" fill="none" font-size="10" font-family="sans-serif" text-anchor="middle"><path class="domain" stroke="currentColor" d="M0,0H830"/><g class="tick" opacity="1" transform="translate(0,0)"><line stroke="currentColor" y2="6"/><text fill="currentColor" y="9" dy="0.71em">2,013.0</text></g><g class="tick" opacity="1" transform="translate(59.285714285714285,0)"><line stroke="currentColor" y2="6"/><text fill="currentColor" y="9" dy="0.71em">2,013.5</text></g><g class="tick" opacity="1" transform="translate(118.57142857142857,0)"><line stroke="currentColor" y2="6"/><text fill="currentColor" y="9" dy="0.71em">2,014.0</text></g><g class="tick" opacity="1" transform="translate(177.85714285714286,0)"><line stroke="currentColor" y2="6"/><text fill="currentColor" y="9" dy="0.71em">2,014.5</text></g><g class="tick" opacity="1" transform="translate(237.14285714285714,0)"><line stroke="currentColor" y2="6"/><text fill="currentColor" y="9" dy="0.71em">2,015.0</text></g><g class="tick" opacity="1" transform="translate(296.42857142857144,0)"><line stroke="currentColor" y2="6"/><text fill="currentColor" y="9" dy="0.71em">2,015.5</text></g><g class="tick" opacity="1" transform="translate(355.7142857142857,0)"><line stroke="currentColor" y2="6"/><text fill="currentColor" y="9" dy="0.71em">2,016.0</text></g><g class="tick" opacity="1" transform="translate(415,0)"><line stroke="currentColor" y2="6"/><text fill="currentColor" y="9" dy="0.71em">2,016.5</text></g><g class="tick" opacity="1" transform="translate(474.2857142857143,0)"><line stroke="currentColor" y2="6"/><text fill="currentColor" y="9" dy="0.71em">2,017.0</text></g><g class="tick" opacity="1" transform="translate(533.5714285714286,0)"><line stroke="currentColor" y2="6"/><text fill="currentColor" y="9" dy="0.71em">2,017.5</text></g><g class="tick" opacity="1" transform="translate(592.8571428571429,0)"><line stroke="currentColor" y2="6"/><text fill="currentColor" y="9" dy="0.71em">2,018.0</text></g><g class="tick" opacity="1" transform="translate(652.1428571428571,0)"><line stroke="currentColor" y2="6"/><text fill="currentColor" y="9" dy="0.71em">2,018.5</text></g><g class="tick" opacity="1" transform="translate(711.4285714285714,0)"><line stroke="currentColor" y2="6"/><text fill="currentColor" y="9" dy="0.71em">2,019.0</text></g><g class="tick" opacity="1" transform="translate(770.7142857142858,0)"><line stroke="currentColor" y2="6"/><text fill="currentColor" y="9" dy="0.71em">2,019.5</text></g><g class="tick" opacity="1" transform="translate(830,0)"><line stroke="currentColor" y2="6"/><text fill="currentColor" y="9" dy="0.71em">2,020.0</text></g></g><text y="756" x="830" text-anchor="end" style="font-family: Arial, sans-serif; font-size: 12px; fill: rgb(123, 123, 123); font-weight: bold;">Año aprendida</text><text x="4" text-anchor="start" dominant-baseline="hanging" style="font-family: Arial, sans-serif; font-size: 12px; fill: rgb(123, 123, 123); font-weight: bold;">Duración (cantidad de Hojas)</text><g id="labels"><text x="0" y="708.1818181818182" text-anchor="start" alignment-baseline="middle" style="font-family: Arial, sans-serif; font-size: 10px; fill: black; font-weight: bold; stroke-width: 2px; paint-order: stroke; stroke: white; stroke-linecap: round; stroke-linejoin: round;">Canción Infantil</text><text x="237.14285714285714" y="680.5970149253732" text-anchor="middle" alignment-baseline="middle" style="font-family: Arial, sans-serif; font-size: 10px; fill: black; font-weight: bold; stroke-width: 2px; paint-order: stroke; stroke: white; stroke-linecap: round; stroke-linejoin: round;">Ballet Clásico</text><text x="830" y="380" text-anchor="end" alignment-baseline="middle" style="font-family: Arial, sans-serif; font-size: 10px; fill: black; font-weight: bold; stroke-width: 2px; paint-order: stroke; stroke: white; stroke-linecap: round; stroke-linejoin: round;">Música Clásica</text><text x="237.14285714285714" y="629.5522388059702" text-anchor="middle" alignment-baseline="middle" style="font-family: Arial, sans-serif; font-size: 10px; fill: black; font-weight: bold; stroke-width: 2px; paint-order: stroke; stroke: white; stroke-linecap: round; stroke-linejoin: round;">Romanticismo</text><text x="118.57142857142857" y="682.2727272727273" text-anchor="middle" alignment-baseline="middle" style="font-family: Arial, sans-serif; font-size: 10px; fill: black; font-weight: bold; stroke-width: 2px; paint-order: stroke; stroke: white; stroke-linecap: round; stroke-linejoin: round;">Canción folclórica</text><text x="0" y="639.0909090909091" text-anchor="start" alignment-baseline="middle" style="font-family: Arial, sans-serif; font-size: 10px; fill: black; font-weight: bold; stroke-width: 2px; paint-order: stroke; stroke: white; stroke-linecap: round; stroke-linejoin: round;">Bluegrass</text><text x="0" y="570" text-anchor="start" alignment-baseline="middle" style="font-family: Arial, sans-serif; font-size: 10px; fill: black; font-weight: bold; stroke-width: 2px; paint-order: stroke; stroke: white; stroke-linecap: round; stroke-linejoin: round;">Barroco</text><text x="0" y="155.4545454545455" text-anchor="start" alignment-baseline="middle" style="font-family: Arial, sans-serif; font-size: 10px; fill: black; font-weight: bold; stroke-width: 2px; paint-order: stroke; stroke: white; stroke-linecap: round; stroke-linejoin: round;">New Age</text><text x="0" y="500.9090909090909" text-anchor="start" alignment-baseline="middle" style="font-family: Arial, sans-serif; font-size: 10px; fill: black; font-weight: bold; stroke-width: 2px; paint-order: stroke; stroke: white; stroke-linecap: round; stroke-linejoin: round;">Instrumental</text><text x="0" y="466.3636363636364" text-anchor="start" alignment-baseline="middle" style="font-family: Arial, sans-serif; font-size: 10px; fill: black; font-weight: bold; stroke-width: 2px; paint-order: stroke; stroke: white; stroke-linecap: round; stroke-linejoin: round;">Góspel</text><text x="0" y="431.81818181818176" text-anchor="start" alignment-baseline="middle" style="font-family: Arial, sans-serif; font-size: 10px; fill: black; font-weight: bold; stroke-width: 2px; paint-order: stroke; stroke: white; stroke-linecap: round; stroke-linejoin: round;">Espiritual afroamericano</text><text x="355.7142857142857" y="223.52941176470594" text-anchor="middle" alignment-baseline="middle" style="font-family: Arial, sans-serif; font-size: 10px; fill: black; font-weight: bold; stroke-width: 2px; paint-order: stroke; stroke: white; stroke-linecap: round; stroke-linejoin: round;">Jazz</text><text x="0" y="224.5454545454545" text-anchor="start" alignment-baseline="middle" style="font-family: Arial, sans-serif; font-size: 10px; fill: black; font-weight: bold; stroke-width: 2px; paint-order: stroke; stroke: white; stroke-linecap: round; stroke-linejoin: round;">Musical</text><text x="118.57142857142857" y="250.4545454545455" text-anchor="middle" alignment-baseline="middle" style="font-family: Arial, sans-serif; font-size: 10px; fill: black; font-weight: bold; stroke-width: 2px; paint-order: stroke; stroke: white; stroke-linecap: round; stroke-linejoin: round;">Pop</text><text x="355.7142857142857" y="581.1764705882352" text-anchor="middle" alignment-baseline="middle" style="font-family: Arial, sans-serif; font-size: 10px; fill: black; font-weight: bold; stroke-width: 2px; paint-order: stroke; stroke: white; stroke-linecap: round; stroke-linejoin: round;">Balada</text><text x="474.2857142857143" y="478.65384615384613" text-anchor="middle" alignment-baseline="middle" style="font-family: Arial, sans-serif; font-size: 10px; fill: black; font-weight: bold; stroke-width: 2px; paint-order: stroke; stroke: white; stroke-linecap: round; stroke-linejoin: round;">R&amp;B</text><text x="118.57142857142857" y="621.8181818181818" text-anchor="middle" alignment-baseline="middle" style="font-family: Arial, sans-serif; font-size: 10px; fill: black; font-weight: bold; stroke-width: 2px; paint-order: stroke; stroke: white; stroke-linecap: round; stroke-linejoin: round;">Himno Militar</text><text x="118.57142857142857" y="587.2727272727273" text-anchor="middle" alignment-baseline="middle" style="font-family: Arial, sans-serif; font-size: 10px; fill: black; font-weight: bold; stroke-width: 2px; paint-order: stroke; stroke: white; stroke-linecap: round; stroke-linejoin: round;">Rock and Roll</text><text x="474.2857142857143" y="383.65384615384613" text-anchor="middle" alignment-baseline="middle" style="font-family: Arial, sans-serif; font-size: 10px; fill: black; font-weight: bold; stroke-width: 2px; paint-order: stroke; stroke: white; stroke-linecap: round; stroke-linejoin: round;">Romántica</text><text x="118.57142857142857" y="552.7272727272727" text-anchor="middle" alignment-baseline="middle" style="font-family: Arial, sans-serif; font-size: 10px; fill: black; font-weight: bold; stroke-width: 2px; paint-order: stroke; stroke: white; stroke-linecap: round; stroke-linejoin: round;">Villancico</text><text x="118.57142857142857" y="526.8181818181818" text-anchor="middle" alignment-baseline="middle" style="font-family: Arial, sans-serif; font-size: 10px; fill: black; font-weight: bold; stroke-width: 2px; paint-order: stroke; stroke: white; stroke-linecap: round; stroke-linejoin: round;">Música Renacentista</text><text x="711.4285714285714" y="84.44444444444449" text-anchor="middle" alignment-baseline="middle" style="font-family: Arial, sans-serif; font-size: 10px; fill: black; font-weight: bold; stroke-width: 2px; paint-order: stroke; stroke: white; stroke-linecap: round; stroke-linejoin: round;">Pop Rock</text><text x="474.2857142857143" y="248.46153846153842" text-anchor="middle" alignment-baseline="middle" style="font-family: Arial, sans-serif; font-size: 10px; fill: black; font-weight: bold; stroke-width: 2px; paint-order: stroke; stroke: white; stroke-linecap: round; stroke-linejoin: round;">Música Ligera</text><text x="711.4285714285714" y="253.3333333333333" text-anchor="middle" alignment-baseline="middle" style="font-family: Arial, sans-serif; font-size: 10px; fill: black; font-weight: bold; stroke-width: 2px; paint-order: stroke; stroke: white; stroke-linecap: round; stroke-linejoin: round;">Rock</text><text x="237.14285714285714" y="521.7910447761194" text-anchor="middle" alignment-baseline="middle" style="font-family: Arial, sans-serif; font-size: 10px; fill: black; font-weight: bold; stroke-width: 2px; paint-order: stroke; stroke: white; stroke-linecap: round; stroke-linejoin: round;">Soft Rock</text><text x="355.7142857142857" y="454.5098039215686" text-anchor="middle" alignment-baseline="middle" style="font-family: Arial, sans-serif; font-size: 10px; fill: black; font-weight: bold; stroke-width: 2px; paint-order: stroke; stroke: white; stroke-linecap: round; stroke-linejoin: round;">Soul</text><text x="237.14285714285714" y="487.7611940298508" text-anchor="middle" alignment-baseline="middle" style="font-family: Arial, sans-serif; font-size: 10px; fill: black; font-weight: bold; stroke-width: 2px; paint-order: stroke; stroke: white; stroke-linecap: round; stroke-linejoin: round;">Funk</text><text x="355.7142857142857" y="417.25490196078437" text-anchor="middle" alignment-baseline="middle" style="font-family: Arial, sans-serif; font-size: 10px; fill: black; font-weight: bold; stroke-width: 2px; paint-order: stroke; stroke: white; stroke-linecap: round; stroke-linejoin: round;">Vals</text><text x="355.7142857142857" y="387.45098039215685" text-anchor="middle" alignment-baseline="middle" style="font-family: Arial, sans-serif; font-size: 10px; fill: black; font-weight: bold; stroke-width: 2px; paint-order: stroke; stroke: white; stroke-linecap: round; stroke-linejoin: round;">Hip-Hop</text><text x="355.7142857142857" y="357.6470588235295" text-anchor="middle" alignment-baseline="middle" style="font-family: Arial, sans-serif; font-size: 10px; fill: black; font-weight: bold; stroke-width: 2px; paint-order: stroke; stroke: white; stroke-linecap: round; stroke-linejoin: round;">Rap</text><text x="355.7142857142857" y="59.607843137254946" text-anchor="middle" alignment-baseline="middle" style="font-family: Arial, sans-serif; font-size: 10px; fill: black; font-weight: bold; stroke-width: 2px; paint-order: stroke; stroke: white; stroke-linecap: round; stroke-linejoin: round;">Blues</text><text x="592.8571428571429" y="322.7397260273973" text-anchor="middle" alignment-baseline="middle" style="font-family: Arial, sans-serif; font-size: 10px; fill: black; font-weight: bold; stroke-width: 2px; paint-order: stroke; stroke: white; stroke-linecap: round; stroke-linejoin: round;">Impresionista</text><text x="474.2857142857143" y="10.961538461538423" text-anchor="middle" alignment-baseline="middle" style="font-family: Arial, sans-serif; font-size: 10px; fill: black; font-weight: bold; stroke-width: 2px; paint-order: stroke; stroke: white; stroke-linecap: round; stroke-linejoin: round;">Ambient</text><text x="355.7142857142857" y="312.9411764705883" text-anchor="middle" alignment-baseline="middle" style="font-family: Arial, sans-serif; font-size: 10px; fill: black; font-weight: bold; stroke-width: 2px; paint-order: stroke; stroke: white; stroke-linecap: round; stroke-linejoin: round;">Ragtime</text></g></g><text x="4" y="4" style="font-family: Arial, sans-serif; font-size: 12px; fill: black; font-weight: bold; dominant-baseline: hanging;"/></g></g><g id="legend" transform="translate(850,20)"><g transform="translate(5,0)"><g class="legendColor" transform="translate(0,0)"><g class="legendCells" transform="translate(0,15.5)"><g class="cell" transform="translate(0, 0)"><rect class="swatch" height="15" width="15" style="fill: rgb(7, 255, 4);"/><text class="label" transform="translate( 20, 12.5)" font-family="&quot;Arial&quot;, sans-serif" font-size="10px"><tspan x="0" dy="0em">Ambient</tspan></text></g><g class="cell" transform="translate(0, 20.5)"><rect class="swatch" height="15" width="15" style="fill: rgb(222, 119, 155);"/><text class="label" transform="translate( 20, 12.5)" font-family="&quot;Arial&quot;, sans-serif" font-size="10px"><tspan x="0" dy="0em">Balada</tspan></text></g><g class="cell" transform="translate(0, 41)"><rect class="swatch" height="15" width="15" style="fill: rgb(255, 172, 241);"/><text class="label" transform="translate( 20, 12.5)" font-family="&quot;Arial&quot;, sans-serif" font-size="10px"><tspan x="0" dy="0em">Ballet Clásico</tspan></text></g><g class="cell" transform="translate(0, 61.5)"><rect class="swatch" height="15" width="15" style="fill: rgb(139, 87, 42);"/><text class="label" transform="translate( 20, 12.5)" font-family="&quot;Arial&quot;, sans-serif" font-size="10px"><tspan x="0" dy="0em">Barroco</tspan></text></g><g class="cell" transform="translate(0, 82)"><rect class="swatch" height="15" width="15" style="fill: rgb(70, 100, 255);"/><text class="label" transform="translate( 20, 12.5)" font-family="&quot;Arial&quot;, sans-serif" font-size="10px"><tspan x="0" dy="0em">Bluegrass</tspan></text></g><g class="cell" transform="translate(0, 102.5)"><rect class="swatch" height="15" width="15" style="fill: rgb(23, 86, 232);"/><text class="label" transform="translate( 20, 12.5)" font-family="&quot;Arial&quot;, sans-serif" font-size="10px"><tspan x="0" dy="0em">Blues</tspan></text></g><g class="cell" transform="translate(0, 123)"><rect class="swatch" height="15" width="15" style="fill: rgb(249, 163, 55);"/><text class="label" transform="translate( 20, 12.5)" font-family="&quot;Arial&quot;, sans-serif" font-size="10px"><tspan x="0" dy="0em">Canción Infantil</tspan></text></g><g class="cell" transform="translate(0, 143.5)"><rect class="swatch" height="15" width="15" style="fill: rgb(255, 134, 0);"/><text class="label" transform="translate( 20, 12.5)" font-family="&quot;Arial&quot;, sans-serif" font-size="10px"><tspan x="0" dy="0em">Canción folclórica</tspan></text></g><g class="cell" transform="translate(0, 164)"><rect class="swatch" height="15" width="15" style="fill: rgb(81, 53, 28);"/><text class="label" transform="translate( 20, 12.5)" font-family="&quot;Arial&quot;, sans-serif" font-size="10px"><tspan x="0" dy="0em">Espiritual afroamericano</tspan></text></g><g class="cell" transform="translate(0, 184.5)"><rect class="swatch" height="15" width="15" style="fill: rgb(64, 217, 63);"/><text class="label" transform="translate( 20, 12.5)" font-family="&quot;Arial&quot;, sans-serif" font-size="10px"><tspan x="0" dy="0em">Funk</tspan></text></g><g class="cell" transform="translate(0, 205)"><rect class="swatch" height="15" width="15" style="fill: rgb(255, 255, 255);"/><text class="label" transform="translate( 20, 12.5)" font-family="&quot;Arial&quot;, sans-serif" font-size="10px"><tspan x="0" dy="0em">Góspel</tspan></text></g><g class="cell" transform="translate(0, 225.5)"><rect class="swatch" height="15" width="15" style="fill: rgb(10, 125, 45);"/><text class="label" transform="translate( 20, 12.5)" font-family="&quot;Arial&quot;, sans-serif" font-size="10px"><tspan x="0" dy="0em">Himno Militar</tspan></text></g><g class="cell" transform="translate(0, 246)"><rect class="swatch" height="15" width="15" style="fill: rgb(161, 50, 233);"/><text class="label" transform="translate( 20, 12.5)" font-family="&quot;Arial&quot;, sans-serif" font-size="10px"><tspan x="0" dy="0em">Hip-Hop</tspan></text></g><g class="cell" transform="translate(0, 266.5)"><rect class="swatch" height="15" width="15" style="fill: rgb(61, 242, 223);"/><text class="label" transform="translate( 20, 12.5)" font-family="&quot;Arial&quot;, sans-serif" font-size="10px"><tspan x="0" dy="0em">Impresionista</tspan></text></g><g class="cell" transform="translate(0, 287)"><rect class="swatch" height="15" width="15" style="fill: rgb(248, 77, 131);"/><text class="label" transform="translate( 20, 12.5)" font-family="&quot;Arial&quot;, sans-serif" font-size="10px"><tspan x="0" dy="0em">Instrumental</tspan></text></g><g class="cell" transform="translate(0, 307.5)"><rect class="swatch" height="15" width="15" style="fill: rgb(255, 240, 145);"/><text class="label" transform="translate( 20, 12.5)" font-family="&quot;Arial&quot;, sans-serif" font-size="10px"><tspan x="0" dy="0em">Jazz</tspan></text></g><g class="cell" transform="translate(0, 328)"><rect class="swatch" height="15" width="15" style="fill: rgb(0, 0, 0);"/><text class="label" transform="translate( 20, 12.5)" font-family="&quot;Arial&quot;, sans-serif" font-size="10px"><tspan x="0" dy="0em">Marcha Nupcial</tspan></text></g><g class="cell" transform="translate(0, 348.5)"><rect class="swatch" height="15" width="15" style="fill: rgb(216, 87, 252);"/><text class="label" transform="translate( 20, 12.5)" font-family="&quot;Arial&quot;, sans-serif" font-size="10px"><tspan x="0" dy="0em">Musical</tspan></text></g><g class="cell" transform="translate(0, 369)"><rect class="swatch" height="15" width="15" style="fill: rgb(247, 241, 0);"/><text class="label" transform="translate( 20, 12.5)" font-family="&quot;Arial&quot;, sans-serif" font-size="10px"><tspan x="0" dy="0em">Música Clásica</tspan></text></g><g class="cell" transform="translate(0, 389.5)"><rect class="swatch" height="15" width="15" style="fill: rgb(182, 242, 65);"/><text class="label" transform="translate( 20, 12.5)" font-family="&quot;Arial&quot;, sans-serif" font-size="10px"><tspan x="0" dy="0em">Música Ligera</tspan></text></g><g class="cell" transform="translate(0, 410)"><rect class="swatch" height="15" width="15" style="fill: rgb(57, 232, 189);"/><text class="label" transform="translate( 20, 12.5)" font-family="&quot;Arial&quot;, sans-serif" font-size="10px"><tspan x="0" dy="0em">Música Renacentista</tspan></text></g><g class="cell" transform="translate(0, 430.5)"><rect class="swatch" height="15" width="15" style="fill: rgb(157, 162, 198);"/><text class="label" transform="translate( 20, 12.5)" font-family="&quot;Arial&quot;, sans-serif" font-size="10px"><tspan x="0" dy="0em">New Age</tspan></text></g><g class="cell" transform="translate(0, 451)"><rect class="swatch" height="15" width="15" style="fill: rgb(255, 57, 173);"/><text class="label" transform="translate( 20, 12.5)" font-family="&quot;Arial&quot;, sans-serif" font-size="10px"><tspan x="0" dy="0em">Pop</tspan></text></g><g class="cell" transform="translate(0, 471.5)"><rect class="swatch" height="15" width="15" style="fill: rgb(251, 40, 136);"/><text class="label" transform="translate( 20, 12.5)" font-family="&quot;Arial&quot;, sans-serif" font-size="10px"><tspan x="0" dy="0em">Pop Rock</tspan></text></g><g class="cell" transform="translate(0, 492)"><rect class="swatch" height="15" width="15" style="fill: rgb(33, 32, 18);"/><text class="label" transform="translate( 20, 12.5)" font-family="&quot;Arial&quot;, sans-serif" font-size="10px"><tspan x="0" dy="0em">R&amp;B</tspan></text></g><g class="cell" transform="translate(0, 512.5)"><rect class="swatch" height="15" width="15" style="fill: rgb(133, 83, 22);"/><text class="label" transform="translate( 20, 12.5)" font-family="&quot;Arial&quot;, sans-serif" font-size="10px"><tspan x="0" dy="0em">Ragtime</tspan></text></g><g class="cell" transform="translate(0, 533)"><rect class="swatch" height="15" width="15" style="fill: rgb(255, 135, 30);"/><text class="label" transform="translate( 20, 12.5)" font-family="&quot;Arial&quot;, sans-serif" font-size="10px"><tspan x="0" dy="0em">Rap</tspan></text></g><g class="cell" transform="translate(0, 553.5)"><rect class="swatch" height="15" width="15" style="fill: rgb(196, 50, 26);"/><text class="label" transform="translate( 20, 12.5)" font-family="&quot;Arial&quot;, sans-serif" font-size="10px"><tspan x="0" dy="0em">Rock</tspan></text></g><g class="cell" transform="translate(0, 574)"><rect class="swatch" height="15" width="15" style="fill: rgb(164, 38, 11);"/><text class="label" transform="translate( 20, 12.5)" font-family="&quot;Arial&quot;, sans-serif" font-size="10px"><tspan x="0" dy="0em">Rock and Roll</tspan></text></g><g class="cell" transform="translate(0, 594.5)"><rect class="swatch" height="15" width="15" style="fill: rgb(33, 211, 62);"/><text class="label" transform="translate( 20, 12.5)" font-family="&quot;Arial&quot;, sans-serif" font-size="10px"><tspan x="0" dy="0em">Romanticismo</tspan></text></g><g class="cell" transform="translate(0, 615)"><rect class="swatch" height="15" width="15" style="fill: rgb(208, 117, 154);"/><text class="label" transform="translate( 20, 12.5)" font-family="&quot;Arial&quot;, sans-serif" font-size="10px"><tspan x="0" dy="0em">Romántica</tspan></text></g><g class="cell" transform="translate(0, 635.5)"><rect class="swatch" height="15" width="15" style="fill: rgb(255, 166, 149);"/><text class="label" transform="translate( 20, 12.5)" font-family="&quot;Arial&quot;, sans-serif" font-size="10px"><tspan x="0" dy="0em">Soft Rock</tspan></text></g><g class="cell" transform="translate(0, 656)"><rect class="swatch" height="15" width="15" style="fill: rgb(30, 0, 201);"/><text class="label" transform="translate( 20, 12.5)" font-family="&quot;Arial&quot;, sans-serif" font-size="10px"><tspan x="0" dy="0em">Soul</tspan></text></g><g class="cell" transform="translate(0, 676.5)"><rect class="swatch" height="15" width="15" style="fill: rgb(80, 171, 227);"/><text class="label" transform="translate( 20, 12.5)" font-family="&quot;Arial&quot;, sans-serif" font-size="10px"><tspan x="0" dy="0em">Vals</tspan></text></g><g class="cell" transform="translate(0, 697)"><rect class="swatch" height="15" width="15" style="fill: rgb(255, 235, 46);"/><text class="label" transform="translate( 20, 12.5)" font-family="&quot;Arial&quot;, sans-serif" font-size="10px"><tspan x="0" dy="0em">Villancico</tspan></text></g><g class="cell" transform="translate(0, 717.5)"><rect class="swatch" height="15" width="15" style="fill: rgb(81, 68, 224);"/><text class="label" transform="translate( 20, 12.5)" font-family="&quot;Arial&quot;, sans-serif" font-size="10px"><tspan x="0" dy="0em">Ópera</tspan></text></g></g><text class="legendTitle" font-family="&quot;Arial&quot;, sans-serif" font-size="12px" font-weight="bold"><tspan x="0" dy="0em">Colors</tspan></text></g></g></g></svg>